HIERARCHY
ROOT Hips
{
	OFFSET 0.000000 0.000000 0.000000
	CHANNELS 6 Xposition Yposition Zposition Zrotation Yrotation Xrotation 
	JOINT LHipJoint
	{
		OFFSET 0.000000 0.000000 0.000000
		CHANNELS 3 Zrotation Yrotation Xrotation
		JOINT LeftUpLeg
		{
			OFFSET 1.363060 -1.794630 0.839290
			CHANNELS 3 Zrotation Yrotation Xrotation
			JOINT LeftLeg
			{
				OFFSET 2.448110 -6.726130 0.000000
				CHANNELS 3 Zrotation Yrotation Xrotation
				JOINT LeftFoot
				{
					OFFSET 2.562200 -7.039590 0.000000
					CHANNELS 3 Zrotation Yrotation Xrotation
					JOINT LeftToeBase
					{
						OFFSET 0.157640 -0.433110 2.322550
						CHANNELS 3 Zrotation Yrotation Xrotation
						End Site
						{
							OFFSET 0.000000 0.000000 0.000000
						}
					}
				}
			}
		}
	}
	JOINT RHipJoint
	{
		OFFSET 0.000000 0.000000 0.000000
		CHANNELS 3 Zrotation Yrotation Xrotation
		JOINT RightUpLeg
		{
			OFFSET -1.305520 -1.794630 0.839290
			CHANNELS 3 Zrotation Yrotation Xrotation
			JOINT RightLeg
			{
				OFFSET -2.542530 -6.985550 0.000000
				CHANNELS 3 Zrotation Yrotation Xrotation
				JOINT RightFoot
				{
					OFFSET -2.568260 -7.056230 0.000000
					CHANNELS 3 Zrotation Yrotation Xrotation
					JOINT RightToeBase
					{
						OFFSET -0.164730 -0.452590 2.363150
						CHANNELS 3 Zrotation Yrotation Xrotation
						End Site
						{
							OFFSET 0.000000 0.000000 0.000000
						}
					}
				}
			}
		}
	}
	JOINT LowerBack
	{
		OFFSET 0.000000 0.000000 0.000000
		CHANNELS 3 Zrotation Yrotation Xrotation
		JOINT Spine
		{
			OFFSET 0.028270 2.035590 -0.193380
			CHANNELS 3 Zrotation Yrotation Xrotation
			JOINT Spine1
			{
				OFFSET 0.056720 2.048850 -0.042750
				CHANNELS 3 Zrotation Yrotation Xrotation
				JOINT Neck
				{
					OFFSET 0.000000 0.000000 0.000000
					CHANNELS 3 Zrotation Yrotation Xrotation
					JOINT Neck1
					{
						OFFSET -0.054170 1.746240 0.172020
						CHANNELS 3 Zrotation Yrotation Xrotation
						JOINT Head
						{
							OFFSET 0.104070 1.761360 -0.123970
							CHANNELS 3 Zrotation Yrotation Xrotation
							End Site
							{
								OFFSET 0.000000 0.000000 0.000000
							}
						}
					}
				}
				JOINT LeftShoulder
				{
					OFFSET 0.000000 0.000000 0.000000
					CHANNELS 3 Zrotation Yrotation Xrotation
					JOINT LeftArm
					{
						OFFSET 3.362410 1.200890 -0.311210
						CHANNELS 3 Zrotation Yrotation Xrotation
						JOINT LeftForeArm
						{
							OFFSET 4.983000 -0.000000 -0.000000
							CHANNELS 3 Zrotation Yrotation Xrotation
							JOINT LeftHand
							{
								OFFSET 3.483560 -0.000000 -0.000000
								CHANNELS 3 Zrotation Yrotation Xrotation
								JOINT LeftFingerBase
								{
									OFFSET 0.000000 0.000000 0.000000
									CHANNELS 3 Zrotation Yrotation Xrotation
									JOINT LeftHandIndex1
									{
										OFFSET 0.715260 -0.000000 -0.000000
										CHANNELS 3 Zrotation Yrotation Xrotation
										End Site
										{
											OFFSET 0.000000 0.000000 0.000000
										}
									}
								}
								JOINT LThumb
								{
									OFFSET 0.000000 0.000000 0.000000
									CHANNELS 3 Zrotation Yrotation Xrotation
									End Site
									{
										OFFSET 0.000000 0.000000 0.000000
									}
								}
							}
						}
					}
				}
				JOINT RightShoulder
				{
					OFFSET 0.000000 0.000000 0.000000
					CHANNELS 3 Zrotation Yrotation Xrotation
					JOINT RightArm
					{
						OFFSET -3.136600 1.374050 -0.404650
						CHANNELS 3 Zrotation Yrotation Xrotation
						JOINT RightForeArm
						{
							OFFSET -5.241900 -0.000000 -0.000000
							CHANNELS 3 Zrotation Yrotation Xrotation
							JOINT RightHand
							{
								OFFSET -3.444170 -0.000000 -0.000000
								CHANNELS 3 Zrotation Yrotation Xrotation
								JOINT RightFingerBase
								{
									OFFSET 0.000000 0.000000 0.000000
									CHANNELS 3 Zrotation Yrotation Xrotation
									JOINT RightHandIndex1
									{
										OFFSET -0.622530 -0.000000 -0.000000
										CHANNELS 3 Zrotation Yrotation Xrotation
										End Site
										{
											OFFSET 0.000000 0.000000 0.000000
										}
									}
								}
								JOINT RThumb
								{
									OFFSET 0.000000 0.000000 0.000000
									CHANNELS 3 Zrotation Yrotation Xrotation
									End Site
									{
										OFFSET 0.000000 0.000000 0.000000
									}
								}
							}
						}
					}
				}
			}
		}
	}
}
MOTION
Frames: 9
Frame Time: 0.008333
43.108870 17.835834 5.403057 -94.918818 -85.129287 108.895232 0.061873 -0.867699 -1.132939 -11.708307 -5.953058 -7.525536 -0.065738 3.951763 9.955335 0.144073 1.053444 1.863517 0.417700 -4.148400 -11.494500 -0.691697 0.924984 -1.874882 27.371288 5.107134 -9.286915 -0.483147 -5.289951 13.443209 1.561423 -12.607892 -7.659496 -0.735000 -5.477100 15.274600 2.603856 -1.816669 -1.182865 1.380481 -2.246864 -5.613725 5.606949 -1.388935 -0.756784 -10.725102 -9.147426 -14.217023 7.448504 -10.771167 8.550719 3.425100 -5.226800 8.196500 6.540791 3.320762 0.693819 -96.302406 2.183993 7.075905 12.265981 -30.741518 -3.404556 1.800722 2.536923 28.814410 12.548198 20.108337 3.617200 -7.125000 0.000000 0.000000 -14.838000 46.764000 -0.660100 -3.634275 -3.701233 -1.434333 89.922169 2.543876 11.655415 -10.906742 22.998971 -2.212478 -0.815250 0.263692 19.088560 -16.741058 -24.189427 6.676200 7.125000 0.000000 0.000000 14.307500 -54.540300 -3.406100 
43.115011 17.806219 5.407812 -95.024099 -85.318162 109.015992 0.064184 -0.867838 -1.135618 -12.044393 -5.980658 -7.485286 -0.066757 3.948746 9.939361 0.146630 0.969909 1.207706 0.364700 -3.879500 -10.737900 -0.681726 0.931728 -1.875377 27.176532 5.009547 -9.317154 -0.478323 -5.274496 13.409399 1.534037 -12.487301 -8.186509 -0.803400 -5.720700 15.976100 2.504783 -1.834900 -1.256161 1.326850 -2.263028 -5.607784 5.511052 -1.399343 -0.708970 -10.795138 -9.182917 -14.211743 7.514195 -10.810184 8.564456 3.456900 -5.243100 8.211700 6.520293 3.334876 0.690863 -96.214158 2.071476 7.040688 12.360800 -30.827293 -3.430968 1.786118 2.535858 28.755651 12.509454 20.078807 3.603800 -7.125000 0.000000 0.000000 -14.858000 46.739300 -0.651700 -3.641560 -3.707107 -1.433026 89.952178 2.514383 11.931118 -10.975288 23.110578 -2.235140 -0.820548 0.253600 19.124788 -16.571612 -24.562768 6.692600 7.125000 0.000000 0.000000 14.660100 -54.862700 -3.608900 
43.123530 17.774326 5.405435 -94.775258 -85.156060 108.727927 0.063839 -0.865181 -1.129576 -11.840934 -5.942517 -7.412833 -0.067561 3.932419 9.900399 0.144336 0.934914 0.577233 0.314700 -3.606000 -9.970800 -0.683539 0.927635 -1.868134 27.477755 5.165088 -9.170203 -0.463445 -5.226326 13.272759 1.551533 -12.629925 -8.697805 -0.847100 -5.870200 16.408200 2.658045 -1.835854 -1.121036 1.351112 -2.266826 -5.659037 5.477458 -1.403099 -0.905466 -10.841338 -9.152738 -14.062250 7.553813 -10.773689 8.533792 3.487900 -5.230600 8.177000 6.502169 3.316671 0.693357 -96.172892 2.247148 6.983276 12.556715 -31.021804 -3.488067 1.773567 2.534503 28.655083 12.569457 20.056721 3.620400 -7.125000 0.000000 0.000000 -14.793300 46.732900 -0.646400 -3.625042 -3.695956 -1.438347 89.920228 2.322116 12.218180 -11.001055 23.147690 -2.245455 -0.818094 0.258805 19.032389 -16.739191 -24.398089 6.727200 7.125000 0.000000 0.000000 14.411600 -54.741100 -3.502700 
43.130661 17.741640 5.408208 -95.252707 -85.071061 109.205125 0.062181 -0.859235 -1.128135 -11.826932 -6.049645 -7.296446 -0.074100 3.889992 9.775720 0.115735 1.099547 -0.035412 0.279400 -3.399600 -9.393200 -0.682987 0.932278 -1.867922 27.663811 5.353813 -9.122134 -0.461026 -5.231898 13.290669 1.567453 -12.771353 -9.215004 -0.865300 -5.931500 16.585900 2.750900 -1.785507 -1.160127 1.349080 -2.206661 -5.659842 5.427079 -1.373534 -0.893369 -10.930113 -9.192354 -14.001107 7.606436 -10.821478 8.567259 3.519100 -5.255500 8.190400 6.487276 3.323051 0.694893 -96.156112 2.225278 6.980092 12.694372 -31.172782 -3.534199 1.779189 2.538822 28.521928 12.715638 20.136046 3.677200 -7.125000 0.000000 0.000000 -14.693000 46.822200 -0.674900 -3.623394 -3.694665 -1.435193 89.911241 2.325400 12.178259 -10.995842 23.142675 -2.248717 -0.813409 0.263673 19.064833 -16.717313 -24.150669 6.656700 7.125000 0.000000 0.000000 14.310900 -54.498400 -3.392100 
43.139080 17.711232 5.410189 -94.493048 -84.980438 108.405548 0.061017 -0.862385 -1.130383 -11.797569 -6.130247 -7.154919 -0.076730 3.865419 9.709608 0.097467 1.201518 -0.703413 0.234000 -3.113300 -8.594400 -0.683350 0.926324 -1.864806 27.874801 5.429593 -9.009237 -0.450083 -5.200963 13.200453 1.579130 -12.892211 -9.692400 -0.902900 -6.055700 16.946000 2.892331 -1.785515 -1.130521 1.354485 -2.210669 -5.661395 5.355826 -1.378392 -0.918573 -10.927684 -9.177800 -13.962136 7.565409 -10.806055 8.591687 3.509600 -5.253200 8.188100 6.475229 3.319212 0.695522 -96.137087 2.217962 6.870004 12.829665 -31.306181 -3.574762 1.767216 2.533974 28.277058 12.801766 20.031413 3.682300 -7.125000 0.000000 0.000000 -14.587200 46.740900 -0.640000 -3.616720 -3.697743 -1.438719 89.925637 2.307600 12.212964 -11.015441 23.168643 -2.243476 -0.825388 0.251275 19.022462 -16.786079 -24.796331 6.846100 7.125000 0.000000 0.000000 14.566000 -55.133600 -3.681800 
43.144924 17.678942 5.413160 -94.572819 -84.841036 108.525375 0.057932 -0.859807 -1.135964 -11.731496 -6.297804 -6.940539 -0.090949 3.773145 9.446104 0.056163 1.472436 -1.435605 0.129200 -2.316700 -6.381800 -0.687905 0.929034 -1.871713 28.117992 5.617551 -8.914129 -0.437201 -5.160809 13.085014 1.589799 -13.012396 -10.158629 -0.940700 -6.177600 17.300500 3.027139 -1.730314 -1.371328 1.366241 -2.156438 -5.596479 5.322124 -1.352011 -0.657655 -11.093439 -9.229537 -13.746947 7.795871 -10.854847 8.317247 3.623100 -5.270700 8.071300 6.479194 3.359604 0.698363 -96.198687 1.964029 6.617092 12.846087 -31.345339 -3.598382 1.800480 2.564349 28.231873 12.949899 20.415172 3.794800 -7.125000 0.000000 0.000000 -14.581800 47.093000 -0.768900 -3.627932 -3.701348 -1.419539 89.944058 2.508080 11.960109 -10.983431 23.133069 -2.247130 -0.813250 0.263569 19.101617 -16.679425 -24.114385 6.630700 7.125000 0.000000 0.000000 14.330600 -54.454400 -3.381500 
43.153046 17.651209 5.415537 -94.330031 -84.720527 108.255133 0.054465 -0.854802 -1.135668 -11.656471 -6.630889 -6.609956 -0.108933 3.653267 9.112161 0.014868 1.749759 -2.053291 0.054300 -1.503500 -4.135300 -0.690849 0.927158 -1.873348 28.353498 5.713314 -8.749054 -0.418200 -5.088468 12.877762 1.618557 -13.214317 -10.467951 -0.942800 -6.184400 17.320300 3.177626 -1.710927 -1.374720 1.374971 -2.139775 -5.584587 5.270641 -1.344047 -0.632948 -11.053367 -9.206960 -13.729491 7.715866 -10.829998 8.318389 3.594700 -5.264300 8.059100 6.483801 3.362642 0.694631 -96.268649 1.846711 6.202742 12.849263 -31.340051 -3.609542 1.819953 2.563498 28.183419 13.114095 20.472932 3.850100 -7.125000 0.000000 0.000000 -14.466000 47.160600 -0.787100 -3.626770 -3.708604 -1.419142 89.981355 2.591829 11.742557 -10.916721 23.025489 -2.214048 -0.819439 0.263719 19.261998 -16.871368 -24.362036 6.775700 7.125000 0.000000 0.000000 14.264200 -54.732500 -3.462800 
43.158791 17.623773 5.419301 -94.336914 -84.585020 108.289863 0.050566 -0.846659 -1.133710 -11.601382 -6.962391 -6.276735 -0.128502 3.518478 8.733125 -0.060341 2.246288 -2.605273 0.034000 -1.190200 -3.272200 -0.691722 0.927600 -1.873394 28.568580 5.825447 -8.698518 -0.410603 -5.066506 12.815122 1.622841 -13.290200 -10.823125 -0.971800 -6.275900 17.587100 3.391004 -1.683681 -1.447332 1.373474 -2.118258 -5.587165 5.159252 -1.335554 -0.606467 -11.039187 -9.170593 -13.777166 7.657688 -10.785163 8.427915 3.581700 -5.246600 8.097900 6.485006 3.366578 0.687898 -96.334493 1.747530 5.749854 12.820338 -31.294157 -3.612848 1.857444 2.548744 28.200303 13.426521 20.521143 3.944800 -7.125000 0.000000 0.000000 -14.228900 47.239600 -0.801900 -3.628817 -3.716396 -1.417098 90.049966 2.682825 11.390685 -10.825410 22.884010 -2.183661 -0.815043 0.269488 19.427087 -16.824154 -24.114414 6.692900 7.125000 0.000000 0.000000 14.189300 -54.483000 -3.357100 
43.166219 17.601190 5.421480 -94.365796 -84.492754 108.317974 0.048021 -0.843180 -1.131215 -11.606179 -6.892202 -6.119255 -0.137243 3.449568 8.539493 -0.098434 2.507005 -3.145861 0.024000 -0.999300 -2.747000 -0.693359 0.927838 -1.873543 28.716513 5.940214 -8.671144 -0.409954 -5.074914 12.839836 1.619046 -13.326049 -11.181300 -1.008800 -6.390800 17.922500 3.492733 -1.672878 -1.471268 1.387185 -2.113737 -5.583763 5.160084 -1.331195 -0.586736 -11.013661 -9.129613 -13.855339 7.535137 -10.732342 8.583361 3.542600 -5.229100 8.154900 6.508960 3.367575 0.679317 -96.492230 1.588598 4.926807 12.656882 -31.080986 -3.571319 1.896356 2.468974 28.411455 13.862114 20.015799 3.958900 -7.125000 0.000000 0.000000 -13.733200 46.840200 -0.635300 -3.633341 -3.723744 -1.418502 90.080637 2.816737 11.041216 -10.735809 22.736057 -2.138966 -0.824314 0.263364 19.638769 -16.879709 -24.587710 6.834000 7.125000 0.000000 0.000000 14.369600 -54.949200 -3.565600 
